<svg xmlns="http://www.w3.org/2000/svg" xmlns:xlink="http://www.w3.org/1999/xlink" width="500" height="500" viewBox="0 0 500 500">
  <defs>
    <clipPath id="clip-Artboard_1">
      <rect width="500" height="500"/>
    </clipPath>
  </defs>
  <g id="Artboard_1" data-name="Artboard 1" clip-path="url(#clip-Artboard_1)">
    <g id="Background_complete" data-name="Background complete">
      <g id="Group_12" data-name="Group 12">
        <g id="Group_2" data-name="Group 2">
          <rect id="Rectangle_1" data-name="Rectangle 1" width="500" height="0.25" transform="translate(0 382.398)" fill="#e6e6e6"/>
          <rect id="Rectangle_2" data-name="Rectangle 2" width="33.122" height="0.25" transform="translate(91.704 397.528)" fill="#e6e6e6"/>
          <rect id="Rectangle_3" data-name="Rectangle 3" width="19.193" height="0.25" transform="translate(62.029 397.528)" fill="#e6e6e6"/>
          <rect id="Rectangle_4" data-name="Rectangle 4" width="19.192" height="0.25" transform="translate(191.362 401.208)" fill="#e6e6e6"/>
          <rect id="Rectangle_5" data-name="Rectangle 5" width="43.193" height="0.25" transform="translate(267.423 406.791)" fill="#e6e6e6"/>
          <rect id="Rectangle_6" data-name="Rectangle 6" width="6.333" height="0.25" transform="translate(252.187 406.791)" fill="#e6e6e6"/>
          <rect id="Rectangle_7" data-name="Rectangle 7" width="93.676" height="0.25" transform="translate(359.667 401.208)" fill="#e6e6e6"/>
          <g id="Group_1" data-name="Group 1">
            <path id="Path_1" data-name="Path 1" d="M237.014,337.8H43.915a5.715,5.715,0,0,1-5.708-5.708V60.66a5.714,5.714,0,0,1,5.708-5.707h193.1a5.714,5.714,0,0,1,5.707,5.707V332.092A5.715,5.715,0,0,1,237.014,337.8ZM43.915,55.2a5.463,5.463,0,0,0-5.458,5.457V332.092a5.464,5.464,0,0,0,5.458,5.458h193.1a5.464,5.464,0,0,0,5.457-5.458V60.66a5.464,5.464,0,0,0-5.457-5.457Z" fill="#e6e6e6"/>
            <path id="Path_2" data-name="Path 2" d="M453.31,337.8h-193.1a5.714,5.714,0,0,1-5.707-5.708V60.66a5.713,5.713,0,0,1,5.707-5.707h193.1a5.714,5.714,0,0,1,5.709,5.707V332.092A5.715,5.715,0,0,1,453.31,337.8ZM260.212,55.2a5.463,5.463,0,0,0-5.457,5.457V332.092a5.463,5.463,0,0,0,5.457,5.458h193.1a5.464,5.464,0,0,0,5.459-5.458V60.66A5.464,5.464,0,0,0,453.31,55.2Z" fill="#e6e6e6"/>
          </g>
        </g>
        <g id="Group_3" data-name="Group 3">
          <rect id="Rectangle_8" data-name="Rectangle 8" width="21.989" height="87.234" transform="translate(245.41 296.977)" fill="#e0e0e0"/>
          <path id="Path_3" data-name="Path 3" d="M263.223,384.212H267.4v-11.88h-8.556Z" fill="#fafafa"/>
          <rect id="Rectangle_9" data-name="Rectangle 9" width="21.989" height="87.234" transform="translate(149.055 296.977)" fill="#e0e0e0"/>
          <rect id="Rectangle_10" data-name="Rectangle 10" width="100.001" height="79.945" transform="translate(167.399 296.977)" fill="#fafafa"/>
          <path id="Path_4" data-name="Path 4" d="M263.773,300.907v21.151H171.025V300.907h92.748m.386-.386h-93.52v21.923h93.52V300.521Z" fill="#e0e0e0"/>
          <path id="Path_5" data-name="Path 5" d="M171.575,384.212H167.4v-11.88h8.555Z" fill="#fafafa"/>
          <path id="Path_6" data-name="Path 6" d="M215.187,311.482a2.212,2.212,0,1,0,2.212-2.211A2.212,2.212,0,0,0,215.187,311.482Z" fill="#e6e6e6"/>
          <path id="Path_7" data-name="Path 7" d="M263.773,326.374v21.151H171.025V326.374h92.748m.386-.386h-93.52v21.923h93.52V325.988Z" fill="#e0e0e0"/>
          <path id="Path_8" data-name="Path 8" d="M215.187,336.95a2.212,2.212,0,1,0,2.212-2.212A2.212,2.212,0,0,0,215.187,336.95Z" fill="#e6e6e6"/>
          <path id="Path_9" data-name="Path 9" d="M263.773,351.841v21.151H171.025V351.841h92.748m.386-.386h-93.52v21.924h93.52V351.455Z" fill="#e0e0e0"/>
          <path id="Path_10" data-name="Path 10" d="M215.187,362.417A2.212,2.212,0,1,0,217.4,360.2,2.212,2.212,0,0,0,215.187,362.417Z" fill="#e6e6e6"/>
        </g>
        <g id="Group_4" data-name="Group 4">
          <rect id="Rectangle_11" data-name="Rectangle 11" width="21.989" height="137.896" transform="translate(135.621 246.316)" fill="#e0e0e0"/>
          <path id="Path_11" data-name="Path 11" d="M153.434,384.212h4.177v-11.88h-8.556Z" fill="#fafafa"/>
          <rect id="Rectangle_12" data-name="Rectangle 12" width="21.989" height="137.896" transform="translate(53.438 246.316)" fill="#e0e0e0"/>
          <rect id="Rectangle_13" data-name="Rectangle 13" width="85.827" height="130.606" transform="translate(71.783 246.316)" fill="#fafafa"/>
          <path id="Path_12" data-name="Path 12" d="M153.915,250.014v29.57H75.478v-29.57h78.437m.455-.455H75.023V280.04H154.37V249.559Z" fill="#e0e0e0"/>
          <path id="Path_13" data-name="Path 13" d="M153.915,283.178v78.437H116.554V283.178h37.361m.455-.455H116.1V362.07H154.37V282.723Z" fill="#e0e0e0"/>
          <path id="Path_14" data-name="Path 14" d="M112.839,283.178v78.437H75.478V283.178h37.361m.456-.455H75.023V362.07h38.272V282.723Z" fill="#e0e0e0"/>
          <path id="Path_15" data-name="Path 15" d="M75.959,384.212H71.783v-11.88h8.556Z" fill="#fafafa"/>
          <path id="Path_16" data-name="Path 16" d="M112.485,264.8a2.211,2.211,0,1,0,2.211-2.211A2.211,2.211,0,0,0,112.485,264.8Z" fill="#e6e6e6"/>
          <path id="Path_17" data-name="Path 17" d="M120.4,320.525a2.211,2.211,0,1,0,2.212-2.211A2.212,2.212,0,0,0,120.4,320.525Z" fill="#e6e6e6"/>
          <path id="Path_18" data-name="Path 18" d="M104.566,320.525a2.212,2.212,0,1,0,2.212-2.211A2.212,2.212,0,0,0,104.566,320.525Z" fill="#e6e6e6"/>
        </g>
        <path id="Path_19" data-name="Path 19" d="M102.075,207.869H92.8s1.611,8.574,1.611,13.62-7.056,24.827,3.028,24.827,3.027-19.781,3.027-24.827S102.075,207.869,102.075,207.869Z" fill="#e0e0e0"/>
        <path id="Path_20" data-name="Path 20" d="M66.8,228.148v6.027a12.176,12.176,0,0,0,12.141,12.141h6.027a12.176,12.176,0,0,0,12.14-12.141v-6.027Z" fill="#f5f5f5"/>
        <path id="Path_21" data-name="Path 21" d="M195.667,284.265c0,6.991,7.831,12.712,17.4,12.712h8.639c9.572,0,17.4-5.721,17.4-12.712Z" fill="#e0e0e0"/>
        <g id="Group_6" data-name="Group 6">
          <path id="Path_22" data-name="Path 22" d="M424.606,274.03c-5.24,4.277-12.472,12.109-19.1,23.127-4.413,7.338-7.074,15.027-8.242,25.185.025-11.5.061-23.854.1-35.514,1.331-3,4.371-9.916,6.552-15.38,7.277-18.231,9.987-22.714,16.532-38.439,8.729-20.974,17.674-45.861,15.113-43.873-5.219,4.053-25.22,41.505-27.382,46.865a150.059,150.059,0,0,0-10.794,44.853c.04-10.952.084-21.008.125-28.767.134-25.309.564-33.477.774-36,.81-1.28,1.765-2.773,2.322-3.577,4.7-6.793,6.51-12.58,10.936-22.711,6.273-14.357,11.676-39.847,10.1-38.561-6.576,5.352-11.763,16.861-18.579,31.526s-4.866,23.1-6.218,35.623c-.285,2.458-.5,11.733-.658,24.588-1.768-13.695-5.084-22.72-11.135-30.921-7.441-10.088-14.64-16.9-19.923-20.46s9.121,21.22,16.009,32.035c6.135,9.631,11.785,18.13,14.971,26.5-.169,17.422-.247,39.483-.248,60.019-1.58-9.346-4.16-19.409-7.6-27.2-4.136-9.364-10.5-23.724-15.564-28.6-1.216-1.17,5.3,26.76,9.476,34.187s7.248,14.427,9.879,18.637c.614.982,2.649,4.77,3.812,6.948.012,25.07.139,47.192.357,54.722H397.3c-.073-1.943-.085-14.7-.062-31.575,2.608-9.165,8.572-19.623,13.495-29.164C416.106,297.7,429.847,269.752,424.606,274.03Z" fill="#e0e0e0"/>
          <g id="Group_5" data-name="Group 5">
            <path id="Path_23" data-name="Path 23" d="M412.44,384.212H381.1l-2.366-30.723h36.075Z" fill="#f0f0f0"/>
            <path id="Path_24" data-name="Path 24" d="M417.142,357.068H376.4L375.228,346.7h43.081Z" fill="#f5f5f5"/>
          </g>
        </g>
        <g id="Group_7" data-name="Group 7">
          <rect id="Rectangle_14" data-name="Rectangle 14" width="56.052" height="61.549" transform="translate(68.208 75.497)" fill="#e0e0e0"/>
          <rect id="Rectangle_15" data-name="Rectangle 15" width="57.898" height="61.549" transform="translate(72.433 75.497)" fill="#f5f5f5"/>
          <rect id="Rectangle_16" data-name="Rectangle 16" width="51.848" height="48.197" transform="translate(125.48 80.348) rotate(90)" fill="#fff"/>
          <rect id="Rectangle_17" data-name="Rectangle 17" width="26.714" height="24.832" transform="translate(113.798 92.915) rotate(90)" fill="#f5f5f5"/>
        </g>
        <g id="Group_9" data-name="Group 9">
          <g id="Group_8" data-name="Group 8">
            <rect id="Rectangle_18" data-name="Rectangle 18" width="52.07" height="57.177" transform="translate(357.981 82.672)" fill="#e0e0e0"/>
            <rect id="Rectangle_19" data-name="Rectangle 19" width="53.785" height="57.177" transform="translate(361.906 82.672)" fill="#f5f5f5"/>
            <rect id="Rectangle_20" data-name="Rectangle 20" width="48.165" height="44.773" transform="translate(411.185 87.178) rotate(90)" fill="#fff"/>
          </g>
          <circle id="Ellipse_1" data-name="Ellipse 1" cx="13.968" cy="13.968" r="13.968" transform="translate(374.83 97.292)" fill="#f5f5f5"/>
        </g>
        <g id="Group_11" data-name="Group 11">
          <g id="Group_10" data-name="Group 10">
            <rect id="Rectangle_21" data-name="Rectangle 21" width="41.58" height="45.658" transform="translate(140.909 112.197)" fill="#e0e0e0"/>
            <rect id="Rectangle_22" data-name="Rectangle 22" width="42.95" height="45.658" transform="translate(144.044 112.197)" fill="#f5f5f5"/>
            <rect id="Rectangle_23" data-name="Rectangle 23" width="38.462" height="35.753" transform="translate(183.395 115.795) rotate(90)" fill="#fff"/>
            <path id="Path_25" data-name="Path 25" d="M165.519,125.3l-9.778,16.936H175.3Z" fill="#f5f5f5"/>
          </g>
        </g>
      </g>
    </g>
    <g id="Shadow">
      <ellipse id="Ellipse_2" data-name="Ellipse 2" cx="193.889" cy="11.323" rx="193.889" ry="11.323" transform="translate(56.111 404.915)" fill="#f5f5f5"/>
    </g>
    <g id="Character_2" data-name="Character 2">
      <g id="Group_18" data-name="Group 18">
        <path id="Path_27" data-name="Path 27" d="M349.246,163.432l-9.919-4.022s-13.09,23.873-16.839,25.077c-5.1,1.64-15.653,6.2-21.923,7.054-.845.988-2.239,4.1-2.106,5.239,8.412,2.805,26.892-.919,30.847-3.857C338.325,186.225,349.246,163.432,349.246,163.432Z" fill="#e58a7b"/>
        <g id="Group_14" data-name="Group 14">
          <path id="Path_28" data-name="Path 28" d="M352.3,158.015c1.845,6.839-8.174,20.577-8.174,20.577l-13.162-7.383s2.454-5.647,5.458-11.4C341.273,150.523,350.193,150.21,352.3,158.015Z" fill="#407bff"/>
          <path id="Path_29" data-name="Path 29" d="M352.3,158.015c1.845,6.839-8.174,20.577-8.174,20.577l-13.162-7.383s2.454-5.647,5.458-11.4C341.273,150.523,350.193,150.21,352.3,158.015Z" opacity="0.2"/>
        </g>
        <path id="Path_30" data-name="Path 30" d="M336.212,174.148l5.169,2.9.9-15.866C339.285,163.492,337.157,170.449,336.212,174.148Z" opacity="0.2"/>
        <g id="Group_15" data-name="Group 15">
          <path id="Path_31" data-name="Path 31" d="M343.662,152.863S333.443,175.6,339.4,217.94h40.27c.64-6.182-1.476-36.338,6.194-65.465a102.657,102.657,0,0,0-13.381-1.7,148.037,148.037,0,0,0-17.119,0A78.107,78.107,0,0,0,343.662,152.863Z" fill="#407bff"/>
          <path id="Path_32" data-name="Path 32" d="M343.662,152.863S333.443,175.6,339.4,217.94h40.27c.64-6.182-1.476-36.338,6.194-65.465a102.657,102.657,0,0,0-13.381-1.7,148.037,148.037,0,0,0-17.119,0A78.107,78.107,0,0,0,343.662,152.863Z" opacity="0.2"/>
        </g>
        <path id="Path_33" data-name="Path 33" d="M334.323,417.142c-.063,1.074,15.205,1.944,34.1,1.944s34.267-.87,34.33-1.944-15.205-1.945-34.1-1.945S334.386,416.068,334.323,417.142Z" fill="#e8ecf1"/>
        <rect id="Rectangle_24" data-name="Rectangle 24" width="7.68" height="17.093" transform="translate(355.004 392.912) rotate(-21.073)" fill="#e58a7b"/>
        <path id="Path_34" data-name="Path 34" d="M393.051,409.454h-7.529l-2.762-17.436h7.529Z" fill="#e58a7b"/>
        <path id="Path_35" data-name="Path 35" d="M385.038,408.582H393.5a.611.611,0,0,1,.611.514l1.094,6.693a1.182,1.182,0,0,1-1.18,1.339c-2.95-.051-4.375-.224-8.1-.224-2.288,0-7.017.238-10.177.238-3.091,0-3.39-3.125-2.08-3.408,5.876-1.269,8.164-3.019,10.119-4.689A1.929,1.929,0,0,1,385.038,408.582Z" fill="#263238"/>
        <path id="Path_36" data-name="Path 36" d="M359.972,405.946l8.022-2.332a.623.623,0,0,1,.742.312l2.972,6a1.149,1.149,0,0,1-.752,1.591c-2.9.793-4.858,1.289-8.495,2.347-2.513.73-5.069,1.92-7.552,2.711-1.719.548-5.756.571-7.847.571-3.091,0-3.78-3.26-2.456-3.408,3.353-.377,3.8-.2,5.654-1.13a25.853,25.853,0,0,0,8.076-5.581A3.77,3.77,0,0,1,359.972,405.946Z" fill="#263238"/>
        <path id="Path_37" data-name="Path 37" d="M301.833,191.469l-8.285-3.486-3.411,9.179a34.146,34.146,0,0,0,10.242,0Z" fill="#e58a7b"/>
        <path id="Path_38" data-name="Path 38" d="M287.391,187.758l-.218,6.106,2.965,3.3,3.411-9.178Z" fill="#e58a7b"/>
        <g id="Group_16" data-name="Group 16">
          <rect id="Rectangle_25" data-name="Rectangle 25" width="7.683" height="8.811" transform="translate(355.002 392.92) rotate(-21.105)" fill="#cf6f64"/>
          <path id="Path_39" data-name="Path 39" d="M390.291,392.023h-7.532l1.427,8.987h7.532Z" fill="#cf6f64"/>
        </g>
        <path id="Path_40" data-name="Path 40" d="M338.123,206.487c.144,1.809.319,3.658.535,5.559l29.944-9.721a21.454,21.454,0,0,0,11.52-8.354c.113-2.672.267-5.477.493-8.406.1-1.429.226-2.888.36-4.368.144-1.541.308-3.113.493-4.7Z" opacity="0.2"/>
        <path id="Path_41" data-name="Path 41" d="M347.9,173.688l-1.02-.122c.594-4.989,4.32-8.933,8.254-8.84l-.03,1.028C351.707,165.656,348.434,169.213,347.9,173.688Z" fill="#fff"/>
        <path id="Path_42" data-name="Path 42" d="M353.228,182.922l-.169,0,.03-1.028c3.439.126,6.67-3.458,7.205-7.934l1.019.122C360.727,179,357.12,182.922,353.228,182.922Z" fill="#fff"/>
        <path id="Path_43" data-name="Path 43" d="M371.918,131.5c-1.4,5.508-3.072,15.6.566,19.276,0,0-2.541,5.587-12.776,5.587-9.352,0-4.343-5.587-4.343-5.587,6.228-1.466,6.337-6.023,5.518-10.3Z" fill="#e58a7b"/>
        <path id="Path_44" data-name="Path 44" d="M367.419,135.158l-6.531,5.307a17.25,17.25,0,0,1,.35,3.039c1.909,1.9,5.74-2.915,6.133-5.372A8.23,8.23,0,0,0,367.419,135.158Z" fill="#cf6f64"/>
        <path id="Path_45" data-name="Path 45" d="M349.664,131.429a6.562,6.562,0,0,0,4.242,3.136c2.4.535,3.608-1.674,2.946-3.9-.6-2-2.563-4.69-4.976-4.229A3.334,3.334,0,0,0,349.664,131.429Z" fill="#cf6f64"/>
        <path id="Path_46" data-name="Path 46" d="M353.626,113.8c-3.74,1.714-5.058,16.572-.356,18.768S360.71,110.555,353.626,113.8Z" fill="#263238"/>
        <path id="Path_47" data-name="Path 47" d="M373.059,123.208c-.895,7.459-1.042,11.847-5.033,15.675a9.613,9.613,0,0,1-16.353-5.1c-1.209-6.7.459-17.772,7.933-20.74A9.633,9.633,0,0,1,373.059,123.208Z" fill="#e58a7b"/>
        <path id="Path_48" data-name="Path 48" d="M360.774,117.665c5.532-1.415,9.6-2.379,8.15,2.239-1.936,6.152-4.257,12.112-1.143,12.389,1.894.169,10.295-3.4,9.228-7-.929-3.14,2.976-3.987,3.7-5.588,2.593-5.766-4.816-5.017-3.5-8.506,1.284-3.4-5.969-9.139-9.988-6.334-6.505,4.541-17.684,4.476-11.807-2.972,4.209-5.334-3.3-4.239-3.3-4.239s4.536,2.691-3.1,6.851C340.919,108.915,348.328,120.849,360.774,117.665Z" fill="#263238"/>
        <path id="Path_49" data-name="Path 49" d="M375.946,131.429a7.68,7.68,0,0,1-4.611,3.136c-2.463.535-3.411-1.674-2.488-3.9.83-2,3.113-4.69,5.471-4.229C376.642,126.894,377.27,129.469,375.946,131.429Z" fill="#e58a7b"/>
        <path id="Path_50" data-name="Path 50" d="M339.4,217.94s-6.76,60.5-7.287,83.457c-.548,23.882,22.908,98.394,22.908,98.394l12.011-5.044s-13.985-68.073-12.042-91.527c2.117-25.57,10.881-85.28,10.881-85.28Z" fill="#407bff"/>
        <path id="Path_51" data-name="Path 51" d="M356.2,234.551c-5.385,11.181-1.757,33.285,1.161,46.387,1.11-9.249,2.425-19.289,3.679-28.578C360.916,238.076,359.806,227.05,356.2,234.551Z" opacity="0.2"/>
        <path id="Path_52" data-name="Path 52" d="M366.49,390.826c.056-.024,1.424,3.827,1.424,3.827l-13.844,5.814-2.181-4.055Z" fill="#407bff"/>
        <path id="Path_53" data-name="Path 53" d="M353.686,217.94s5.171,57.538,8.6,79.094c3.753,23.605,18.495,102.236,18.495,102.236h13.79s-8.262-76.725-9.823-100.1c-1.694-25.366-5.075-81.234-5.075-81.234Z" fill="#407bff"/>
        <path id="Path_54" data-name="Path 54" d="M394.78,395.676c.059,0,.461,3.854.461,3.854H380.084L379,395.106Z" fill="#407bff"/>
        <path id="Path_55" data-name="Path 55" d="M389.5,391.122a.128.128,0,0,1-.127-.114c-.075-.7-7.527-69.967-8.929-90.965-1.521-22.787-4.58-73.312-4.611-73.82a.129.129,0,0,1,.121-.136h.008a.129.129,0,0,1,.128.121c.03.507,3.089,51.032,4.611,73.817,1.4,20.994,8.851,90.259,8.927,90.955a.127.127,0,0,1-.114.141Z" opacity="0.2"/>
        <path id="Path_56" data-name="Path 56" d="M361.624,125.293c-.036.607-.386,1.1-.783,1.1s-.69-.492-.654-1.1.386-1.1.783-1.1S361.66,124.686,361.624,125.293Z" fill="#263238"/>
        <path id="Path_57" data-name="Path 57" d="M354.76,125.293c-.036.607-.386,1.1-.783,1.1s-.69-.492-.655-1.1.387-1.1.784-1.1S354.8,124.686,354.76,125.293Z" fill="#263238"/>
        <path id="Path_58" data-name="Path 58" d="M356.924,125.6a23.427,23.427,0,0,1-3.205,5.194,3.417,3.417,0,0,0,2.869.544Z" fill="#df5753"/>
        <path id="Path_59" data-name="Path 59" d="M357.1,133.881a.167.167,0,0,1-.168-.178.192.192,0,0,1,.189-.179,5.144,5.144,0,0,0,4.032-1.881.184.184,0,0,1,.25-.051.173.173,0,0,1,.037.246A5.451,5.451,0,0,1,357.1,133.881Z" fill="#263238"/>
        <path id="Path_60" data-name="Path 60" d="M362.845,123.446a.354.354,0,0,1-.315-.027,2.816,2.816,0,0,0-2.547-.266.343.343,0,0,1-.466-.167.374.374,0,0,1,.2-.476,3.512,3.512,0,0,1,3.224.3.347.347,0,0,1,.091.49A.392.392,0,0,1,362.845,123.446Z" fill="#263238"/>
        <path id="Path_61" data-name="Path 61" d="M352.106,121.451a.32.32,0,0,1-.136-.077.354.354,0,0,1,0-.5,3.719,3.719,0,0,1,3.082-1.24.332.332,0,0,1,.276.406.381.381,0,0,1-.421.3h0a2.975,2.975,0,0,0-2.432,1.008A.371.371,0,0,1,352.106,121.451Z" fill="#263238"/>
        <path id="Path_62" data-name="Path 62" d="M389.73,162.317l-10.4-2.769s-10.2,25.107-13.8,26.747c-4.9,2.231-17.318,9.947-22.593,13.667-.293,1.244-.063,4.561.6,5.463,8.971-1.63,26.23-8.265,29.829-11.637C381.567,186.1,389.73,162.317,389.73,162.317Z" fill="#e58a7b"/>
        <path id="Path_63" data-name="Path 63" d="M382.471,409.9a2.191,2.191,0,0,1-1.427-.383,1.018,1.018,0,0,1-.313-.943.609.609,0,0,1,.335-.505c.849-.426,3.2,1.065,3.463,1.236a.173.173,0,0,1,.071.181.194.194,0,0,1-.143.144A9.106,9.106,0,0,1,382.471,409.9Zm-1.027-1.558a.522.522,0,0,0-.234.045.231.231,0,0,0-.124.209.69.69,0,0,0,.2.648c.391.346,1.372.393,2.665.135A6.781,6.781,0,0,0,381.444,408.339Z" fill="#407bff"/>
        <path id="Path_64" data-name="Path 64" d="M384.415,409.632a.177.177,0,0,1-.084-.021c-.755-.423-2.164-2.073-1.955-2.913a.625.625,0,0,1,.6-.467.931.931,0,0,1,.746.229c.833.715.885,2.888.887,2.98a.19.19,0,0,1-.091.163A.183.183,0,0,1,384.415,409.632Zm-1.34-3.052c-.027,0-.054,0-.082.005-.233.028-.26.135-.271.18-.123.5.763,1.743,1.5,2.331a4.064,4.064,0,0,0-.75-2.36A.6.6,0,0,0,383.075,406.58Z" fill="#407bff"/>
        <path id="Path_65" data-name="Path 65" d="M355.917,408.653a2.849,2.849,0,0,1-1.886-.012.929.929,0,0,1-.487-.764.6.6,0,0,1,.2-.53c.806-.717,4.068.054,4.437.144a.165.165,0,0,1,.127.156.194.194,0,0,1-.112.18A13.618,13.618,0,0,1,355.917,408.653Zm-1.626-1.188a.749.749,0,0,0-.316.143.225.225,0,0,0-.076.212.608.608,0,0,0,.317.506c.531.288,1.764.06,3.351-.6A9.685,9.685,0,0,0,354.291,407.465Z" fill="#407bff"/>
        <path id="Path_66" data-name="Path 66" d="M358.166,407.838a.19.19,0,0,1-.075,0c-.969-.179-3.039-1.329-3.058-2.19,0-.2.09-.477.564-.642a1.277,1.277,0,0,1,1.03.06c1.086.536,1.654,2.456,1.678,2.538a.187.187,0,0,1-.043.175A.191.191,0,0,1,358.166,407.838Zm-2.365-2.526c-.034.009-.069.02-.1.031-.31.109-.308.236-.307.278.012.516,1.45,1.466,2.464,1.786a3.861,3.861,0,0,0-1.4-2.017A.932.932,0,0,0,355.8,405.312Z" fill="#407bff"/>
        <path id="Path_67" data-name="Path 67" d="M343.778,199.373l-10.428,4.8-1.21,2.942,3.855,2.593s7.192-.783,9.241-5.4Z" fill="#e58a7b"/>
        <path id="Path_68" data-name="Path 68" d="M344.222,205.6a14.389,14.389,0,0,0-1.938-5.659l1.644-1.233a15.861,15.861,0,0,1,2.321,6.55Z" fill="#263238"/>
        <path id="Path_69" data-name="Path 69" d="M346,200.791a2,2,0,1,1-2.438-.777A1.826,1.826,0,0,1,346,200.791Z" fill="#263238"/>
        <path id="Path_70" data-name="Path 70" d="M326.3,208.048l1.385,1.4,9.357-4-3.7-1.276Z" fill="#e58a7b"/>
        <path id="Path_71" data-name="Path 71" d="M366.49,390.826c.056-.024,1.424,3.827,1.424,3.827l-13.844,5.814-2.181-4.055Z" opacity="0.2"/>
        <path id="Path_72" data-name="Path 72" d="M394.78,395.676c.059,0,.461,3.854.461,3.854H380.084L379,395.106Z" opacity="0.2"/>
        <g id="Group_17" data-name="Group 17">
          <path id="Path_73" data-name="Path 73" d="M392.441,159.44c2.752,8.866-7.959,20.98-7.959,20.98l-14.848-6.06a152.313,152.313,0,0,1,6.073-15.073C380.232,149.477,389.664,150.49,392.441,159.44Z" fill="#407bff"/>
          <path id="Path_74" data-name="Path 74" d="M392.441,159.44c2.752,8.866-7.959,20.98-7.959,20.98l-14.848-6.06a152.313,152.313,0,0,1,6.073-15.073C380.232,149.477,389.664,150.49,392.441,159.44Z" opacity="0.2"/>
        </g>
      </g>
    </g>
    <g id="Screen">
      <g id="Group_20" data-name="Group 20">
        <rect id="Rectangle_26" data-name="Rectangle 26" width="6.387" height="1.028" transform="translate(238.487 70.57)" fill="#407bff"/>
        <rect id="Rectangle_27" data-name="Rectangle 27" width="17.176" height="1.027" transform="translate(326.828 128.493) rotate(-87.421)" fill="#407bff"/>
        <path id="Path_75" data-name="Path 75" d="M325.613,75.194h-118L196.629,320.913h118Z" fill="#407bff"/>
        <path id="Path_76" data-name="Path 76" d="M322.09,78.566h-118L193.107,324.285h118Z" fill="#fafafa" opacity="0.56"/>
        <path id="Path_77" data-name="Path 77" d="M318.567,81.938h-118L189.584,327.657h118Z" fill="#407bff" opacity="0.07"/>
        <path id="Path_78" data-name="Path 78" d="M305.136,189.106H204.419l-.841,18.806H304.3Z" fill="#fff"/>
        <path id="Path_79" data-name="Path 79" d="M259.815,175.39H205.032l-.376,8.414h54.783Z" fill="#407bff"/>
        <path id="Path_80" data-name="Path 80" d="M302.868,239.849H202.15l-.841,18.806H302.027Z" fill="#fff"/>
        <path id="Path_81" data-name="Path 81" d="M284.4,284.036H216.669l-1.008,22.539H283.39Z" fill="#407bff" opacity="0.47"/>
        <path id="Path_82" data-name="Path 82" d="M279.868,310.067H212.139a.124.124,0,0,1-.086-.038.117.117,0,0,1-.032-.087l1.008-22.539a.119.119,0,0,1,.118-.115h67.728a.12.12,0,0,1,.086.038.114.114,0,0,1,.033.087l-1.008,22.539A.119.119,0,0,1,279.868,310.067Zm-67.6-.239h67.49l1-22.3H213.26Z" fill="#fff"/>
        <path id="Path_83" data-name="Path 83" d="M247.978,226.134H202.763l-.376,8.414H247.6Z" fill="#407bff"/>
        <path id="Path_84" data-name="Path 84" d="M283.106,128.379a26.475,26.475,0,0,1-5.565,15.054A26.9,26.9,0,0,1,256.342,154a24.3,24.3,0,0,1-24.463-25.618,27.048,27.048,0,0,1,26.753-25.619A24.285,24.285,0,0,1,283.106,128.379Z" fill="#fff"/>
        <path id="Path_85" data-name="Path 85" d="M285.515,108.123a7.037,7.037,0,0,1-1.478,4,7.148,7.148,0,0,1-5.633,2.807,6.457,6.457,0,0,1-6.5-6.807,7.188,7.188,0,0,1,7.109-6.807A6.452,6.452,0,0,1,285.515,108.123Z" fill="#407bff"/>
        <path id="Path_86" data-name="Path 86" d="M215.265,198.509a3.182,3.182,0,0,1-3.148,3.013,2.857,2.857,0,0,1-2.879-3.013,3.182,3.182,0,0,1,3.148-3.013A2.856,2.856,0,0,1,215.265,198.509Z" fill="#263238"/>
        <path id="Path_87" data-name="Path 87" d="M228.752,198.509a3.181,3.181,0,0,1-3.148,3.013,2.856,2.856,0,0,1-2.878-3.013,3.181,3.181,0,0,1,3.148-3.013A2.856,2.856,0,0,1,228.752,198.509Z" fill="#263238"/>
        <path id="Path_88" data-name="Path 88" d="M242.24,198.509a3.182,3.182,0,0,1-3.148,3.013,2.856,2.856,0,0,1-2.879-3.013,3.182,3.182,0,0,1,3.148-3.013A2.857,2.857,0,0,1,242.24,198.509Z" fill="#263238"/>
        <path id="Path_89" data-name="Path 89" d="M213,249.252a3.182,3.182,0,0,1-3.148,3.014,2.856,2.856,0,0,1-2.879-3.014,3.182,3.182,0,0,1,3.148-3.013A2.857,2.857,0,0,1,213,249.252Z" fill="#263238"/>
        <path id="Path_90" data-name="Path 90" d="M226.484,249.252a3.182,3.182,0,0,1-3.148,3.014,2.857,2.857,0,0,1-2.879-3.014,3.182,3.182,0,0,1,3.148-3.013A2.856,2.856,0,0,1,226.484,249.252Z" fill="#263238"/>
        <path id="Path_91" data-name="Path 91" d="M239.971,249.252a3.182,3.182,0,0,1-3.148,3.014,2.857,2.857,0,0,1-2.879-3.014,3.183,3.183,0,0,1,3.149-3.013A2.856,2.856,0,0,1,239.971,249.252Z" fill="#263238"/>
        <path id="Path_92" data-name="Path 92" d="M253.459,249.252a3.183,3.183,0,0,1-3.149,3.014,2.856,2.856,0,0,1-2.878-3.014,3.182,3.182,0,0,1,3.148-3.013A2.857,2.857,0,0,1,253.459,249.252Z" fill="#263238"/>
        <path id="Path_93" data-name="Path 93" d="M266.946,249.252a3.182,3.182,0,0,1-3.148,3.014,2.857,2.857,0,0,1-2.879-3.014,3.182,3.182,0,0,1,3.148-3.013A2.857,2.857,0,0,1,266.946,249.252Z" fill="#263238"/>
        <g id="Group_19" data-name="Group 19">
          <ellipse id="Ellipse_3" data-name="Ellipse 3" cx="10.596" cy="10.132" rx="10.596" ry="10.132" transform="matrix(0.715, -0.699, 0.699, 0.715, 243.215, 119.979)" fill="#407bff"/>
          <path id="Path_94" data-name="Path 94" d="M277.541,143.433A26.9,26.9,0,0,1,256.342,154,24.3,24.3,0,0,1,236.1,143.433c4.862-4.84,12.555-7.984,21.074-7.984S273.113,138.593,277.541,143.433Z" fill="#407bff"/>
          <ellipse id="Ellipse_4" data-name="Ellipse 4" cx="10.596" cy="10.132" rx="10.596" ry="10.132" transform="matrix(0.715, -0.699, 0.699, 0.715, 243.215, 119.979)" fill="#fff" opacity="0.1"/>
          <path id="Path_95" data-name="Path 95" d="M277.541,143.433A26.9,26.9,0,0,1,256.342,154,24.3,24.3,0,0,1,236.1,143.433c4.862-4.84,12.555-7.984,21.074-7.984S273.113,138.593,277.541,143.433Z" fill="#fff" opacity="0.1"/>
        </g>
      </g>
    </g>
    <g id="Character_1" data-name="Character 1">
      <g id="Group_32" data-name="Group 32">
        <g id="Group_27" data-name="Group 27">
          <path id="Path_96" data-name="Path 96" d="M130.407,212.443c-.947,2.077-1.943,4.362-2.819,6.591-.882,2.25-1.762,4.5-2.529,6.786a85.763,85.763,0,0,0-3.574,13.8l-.228,1.473a2.246,2.246,0,0,0,.073.745,7.666,7.666,0,0,0,1.1,2.319,29.1,29.1,0,0,0,4.443,4.981,67.816,67.816,0,0,0,5.52,4.616c1.919,1.476,3.943,2.921,5.923,4.274l-1.863,3.51a70.938,70.938,0,0,1-13.481-7.689,32.218,32.218,0,0,1-6.04-5.678,14.2,14.2,0,0,1-2.391-4.273,9.567,9.567,0,0,1-.482-2.945c.006-.247.02-.594.037-.76l.049-.5.1-.993a77.82,77.82,0,0,1,3.265-15.338c.78-2.468,1.613-4.911,2.563-7.309.969-2.413,1.927-4.729,3.14-7.158Z" fill="#e58a7b"/>
          <path id="Path_97" data-name="Path 97" d="M136.914,257.432l7.066-3.585-1.826,7.767s-4.852,1.355-7.108-1Z" fill="#e58a7b"/>
          <path id="Path_98" data-name="Path 98" d="M150.451,255.122l-1.88,6.419-6.417.072,1.825-7.766Z" fill="#e58a7b"/>
          <path id="Path_99" data-name="Path 99" d="M160.432,175a19.947,19.947,0,0,0,1.585,3.954,1.621,1.621,0,0,1-1.585.508Z" fill="#df5753"/>
          <ellipse id="Ellipse_5" data-name="Ellipse 5" cx="0.749" cy="1.146" rx="0.749" ry="1.146" transform="translate(159.474 172.768)" fill="#263238"/>
          <path id="Path_100" data-name="Path 100" d="M160.04,172.8l1.52-.438S160.78,173.552,160.04,172.8Z" fill="#263238"/>
          <path id="Path_101" data-name="Path 101" d="M140.9,182.336c.912,4.655,1.823,13.185-1.434,16.291,0,0,1.273,4.723,9.923,4.723,9.512,0,4.546-4.722,4.546-4.722-5.192-1.24-5.058-5.091-4.153-8.709Z" fill="#e58a7b"/>
          <path id="Path_102" data-name="Path 102" d="M138.373,171.742c.477,7.772.513,11.071,4.438,15.06,5.9,6,15.345,3.714,17.2-4.043,1.669-6.983.608-18.519-7-21.612A10.619,10.619,0,0,0,138.373,171.742Z" fill="#e58a7b"/>
          <path id="Path_103" data-name="Path 103" d="M139.139,162.948c-3.9,1.421-9.1.364-7.056,12.393,2.16,12.736-1.165,16.926-1.165,16.926s14.791,3.152,29.892-.188c0,0-4.61-8.063-3.317-13.945,1.65-7.5.343-10.276.343-10.276S144.619,160.95,139.139,162.948Z" fill="#263238"/>
          <path id="Path_104" data-name="Path 104" d="M155.64,175.792a7.839,7.839,0,0,0,1.224,4.169c1.054,1.621,2.3.961,2.616-.722.282-1.514.073-4.182-1.276-5.216C156.876,173,155.659,174.032,155.64,175.792Z" fill="#e58a7b"/>
          <path id="Path_105" data-name="Path 105" d="M135.754,164.309c-1.125-3.145,4.219-7.982,15.516-5.971s11.794,11.409,11.794,11.409l-2.286-2.713.1,2.856-11.61,2.232Z" fill="#263238"/>
          <g id="Group_21" data-name="Group 21">
            <path id="Path_106" data-name="Path 106" d="M136.712,199.156h0a1.76,1.76,0,0,1,1.45-2.024c3.518-.581,11.514-1.758,15.539-1.2,2.99.414,3.78,2.16,3.907,3.588a1.764,1.764,0,0,1-1.844,1.9l-17.389-.785A1.766,1.766,0,0,1,136.712,199.156Z" fill="#407bff"/>
            <path id="Path_107" data-name="Path 107" d="M136.712,199.156h0a1.76,1.76,0,0,1,1.45-2.024c3.518-.581,11.514-1.758,15.539-1.2,2.99.414,3.78,2.16,3.907,3.588a1.764,1.764,0,0,1-1.844,1.9l-17.389-.785A1.766,1.766,0,0,1,136.712,199.156Z" opacity="0.6"/>
          </g>
          <path id="Path_108" data-name="Path 108" d="M146.76,373.862l6.445,4.474L164,363.71l-6.445-4.474Z" fill="#e58a7b"/>
          <path id="Path_109" data-name="Path 109" d="M131.715,373.566l6.818,3.882,9.552-15.468-6.817-3.882Z" fill="#e58a7b"/>
          <g id="Group_22" data-name="Group 22">
            <path id="Path_110" data-name="Path 110" d="M163.992,363.713l-5.561,7.54-6.447-4.476,5.561-7.539Z" fill="#cf6f64"/>
            <path id="Path_111" data-name="Path 111" d="M141.263,358.1l6.82,3.884-4.927,7.971-6.82-3.884Z" fill="#cf6f64"/>
          </g>
          <g id="Group_23" data-name="Group 23">
            <path id="Path_112" data-name="Path 112" d="M152.2,247.988s25.18,31.735,20.456,62.082c-3.815,24.512-25.912,57.7-25.912,57.7l-10.391-5.164a339.424,339.424,0,0,0,18.7-45.441,33.589,33.589,0,0,0-4.028-29.1c-12.755-18.63-33.19-7.546-19.444-40.083Z" fill="#407bff"/>
            <path id="Path_113" data-name="Path 113" d="M152.2,247.988s25.18,31.735,20.456,62.082c-3.815,24.512-25.912,57.7-25.912,57.7l-10.391-5.164a339.424,339.424,0,0,0,18.7-45.441,33.589,33.589,0,0,0-4.028-29.1c-12.755-18.63-33.19-7.546-19.444-40.083Z" opacity="0.6"/>
          </g>
          <path id="Path_114" data-name="Path 114" d="M164.549,268.38l-3.658-3.637c0,.287,7.09,44.053,9.084,56.354a74.992,74.992,0,0,0,2.682-11.027C174.969,295.211,170.108,280.013,164.549,268.38Z" opacity="0.4"/>
          <g id="Group_24" data-name="Group 24">
            <path id="Path_115" data-name="Path 115" d="M163.444,247.988s30.319,39.88,31.172,63.795c.714,20.039-33.026,58.745-33.026,58.745l-9.795-6.336s19.729-27.518,24.7-50.011c-1.894-22.265-42.542-66.193-42.542-66.193Z" fill="#407bff"/>
            <path id="Path_116" data-name="Path 116" d="M163.444,247.988s30.319,39.88,31.172,63.795c.714,20.039-33.026,58.745-33.026,58.745l-9.795-6.336s19.729-27.518,24.7-50.011c-1.894-22.265-42.542-66.193-42.542-66.193Z" opacity="0.6"/>
          </g>
          <path id="Path_117" data-name="Path 117" d="M125.933,200.41c-3.248.766-6.35,12.553-6.35,12.553l12.662,8.453s4.22-9.316,2.747-13.4C133.458,203.769,130.033,199.443,125.933,200.41Z" fill="#407bff"/>
          <path id="Path_118" data-name="Path 118" d="M128.411,207.994l-.884,10.269,4.714,3.155a42.192,42.192,0,0,0,2.867-9.135Z" opacity="0.2"/>
          <path id="Path_119" data-name="Path 119" d="M167.193,200.637s3.738,1.317-3.749,47.351H131.581c.535-12.968.55-20.964-5.648-47.578a94.11,94.11,0,0,1,13.53-1.783,101.438,101.438,0,0,1,14.469,0C160.146,199.2,167.193,200.637,167.193,200.637Z" fill="#407bff"/>
          <path id="Path_120" data-name="Path 120" d="M170.429,207.948c.722,1.995,1.486,4.152,2.281,6.225q1.143,3.154,2.372,6.292l2.452,6.282.62,1.569.311.785.156.392c.027.071.022.065.012.057a2.2,2.2,0,0,0-.7-.624,2.788,2.788,0,0,0-1.306-.381,2.584,2.584,0,0,0-1.112.2c-.451.216-.458.308-.448.293a1.3,1.3,0,0,0,.224-.227,14.3,14.3,0,0,0,1.429-2.33c.473-.917.92-1.9,1.365-2.891.885-1.993,1.69-4.072,2.509-6.156s1.573-4.209,2.329-6.335l2.277-6.383,3.853.972c-.763,4.565-1.748,9.036-2.923,13.523-.574,2.248-1.238,4.478-2,6.728-.378,1.127-.8,2.251-1.287,3.4a20.883,20.883,0,0,1-1.9,3.617,8.883,8.883,0,0,1-.872,1.079,5.576,5.576,0,0,1-1.822,1.287,4.514,4.514,0,0,1-1.941.363,4.461,4.461,0,0,1-2.111-.636,5.289,5.289,0,0,1-1.818-1.889c-.153-.253-.282-.516-.372-.7l-.19-.388-.379-.776-.757-1.553c-.987-2.081-1.955-4.173-2.873-6.288s-1.793-4.252-2.651-6.4c-.822-2.181-1.634-4.294-2.356-6.614Z" fill="#e58a7b"/>
          <path id="Path_121" data-name="Path 121" d="M167.193,200.637c3.83.913,8.133,12.228,8.133,12.228l-11.382,9.7s-7.376-12.339-5.884-16.413C159.614,201.908,162.19,199.445,167.193,200.637Z" fill="#407bff"/>
          <path id="Path_122" data-name="Path 122" d="M186.976,201.189l3.994-3.341,2.779,4.329-2.047,3.615s-3.26,2.984-6.147,1.466h0A5.188,5.188,0,0,1,186.976,201.189Z" fill="#e58a7b"/>
          <path id="Path_123" data-name="Path 123" d="M198.222,197.858l-.3,1.089-6.328,1.063-.624-2.162Z" fill="#e58a7b"/>
          <path id="Path_124" data-name="Path 124" d="M162.4,371.053l-11.418-7.387,2.044-3.556L165.861,368Z" fill="#407bff"/>
          <path id="Path_125" data-name="Path 125" d="M142.983,376.926a6.847,6.847,0,0,1-2.827-.979.184.184,0,0,1-.094-.181.187.187,0,0,1,.128-.159c.308-.1,3.017-.927,3.785-.283a.633.633,0,0,1,.212.6,1.051,1.051,0,0,1-.564.866A1.413,1.413,0,0,1,142.983,376.926Zm-2.249-1.091c1.243.632,2.242.865,2.723.626a.7.7,0,0,0,.363-.584.262.262,0,0,0-.085-.268C143.332,375.27,141.83,375.534,140.734,375.835Z" fill="#263238"/>
          <path id="Path_126" data-name="Path 126" d="M140.247,375.97a.185.185,0,0,1-.179-.236c.026-.092.65-2.264,1.677-2.758a.968.968,0,0,1,.824-.025.647.647,0,0,1,.46.669c-.07.9-1.9,2.141-2.738,2.345A.213.213,0,0,1,140.247,375.97Zm1.938-2.727a.646.646,0,0,0-.279.068c-.612.295-1.126,1.467-1.371,2.18.88-.371,2.081-1.352,2.124-1.9.007-.089-.013-.205-.234-.3A.609.609,0,0,0,142.185,373.243Z" fill="#263238"/>
          <path id="Path_127" data-name="Path 127" d="M157.268,381.247c-1.126,0-2.7-1.447-3.555-2.336a.188.188,0,0,1-.033-.213.2.2,0,0,1,.189-.1c.4.052,3.874.521,4.366,1.5a.6.6,0,0,1-.023.585,1.031,1.031,0,0,1-.792.553A1.258,1.258,0,0,1,157.268,381.247Zm-2.9-2.2c1.264,1.228,2.369,1.908,3,1.824a.669.669,0,0,0,.515-.368.229.229,0,0,0,.013-.235C157.635,379.731,155.778,379.271,154.371,379.045Z" fill="#263238"/>
          <path id="Path_128" data-name="Path 128" d="M154.481,379.014a3.781,3.781,0,0,1-.669-.05.186.186,0,0,1-.109-.3c.057-.069,1.41-1.7,2.688-1.813a1.351,1.351,0,0,1,1.029.324c.393.337.366.637.274.828C157.377,378.669,155.649,379.014,154.481,379.014Zm-.258-.375c1.117.062,2.9-.309,3.136-.8.02-.041.079-.165-.18-.386a.974.974,0,0,0-.754-.236A4.3,4.3,0,0,0,154.223,378.639Z" fill="#263238"/>
          <path id="Path_129" data-name="Path 129" d="M140.521,374.918l-8.481-2.4a.623.623,0,0,0-.749.346l-2.863,6.437a1.261,1.261,0,0,0,.831,1.685c2.972.785,4.446,1.014,8.175,2.068,2.295.649,5.58,1.835,8.749,2.731,3.1.876,4.223-2.19,2.984-2.847-5.557-2.945-6-4.964-7.515-7.2A2.047,2.047,0,0,0,140.521,374.918Z" fill="#407bff"/>
          <path id="Path_130" data-name="Path 130" d="M153.944,377.743l-7.24-5.027a.62.62,0,0,0-.82.084l-4.8,5.155a1.26,1.26,0,0,0,.238,1.863c2.554,1.709,3.873,2.406,7.057,4.616,1.959,1.36,5.869,4.377,8.574,6.255,2.646,1.836,4.706-.7,3.748-1.721-4.3-4.593-5.244-7.471-5.953-10.081A2.051,2.051,0,0,0,153.944,377.743Z" fill="#407bff"/>
          <path id="Path_131" data-name="Path 131" d="M148.075,368.436l-13.056-6.489,1.352-3.533,13.935,6.832Z" fill="#407bff"/>
          <g id="Group_25" data-name="Group 25">
            <path id="Path_132" data-name="Path 132" d="M131.1,246.118,130,248.97c-.111.222.151.447.519.447H163.6c.287,0,.525-.14.543-.321l.287-2.852c.02-.2-.229-.365-.543-.365H131.623A.58.58,0,0,0,131.1,246.118Z" fill="#407bff"/>
            <path id="Path_133" data-name="Path 133" d="M131.1,246.118,130,248.97c-.111.222.151.447.519.447H163.6c.287,0,.525-.14.543-.321l.287-2.852c.02-.2-.229-.365-.543-.365H131.623A.58.58,0,0,0,131.1,246.118Z" fill="#fff" opacity="0.4"/>
          </g>
          <g id="Group_26" data-name="Group 26">
            <path id="Path_134" data-name="Path 134" d="M136.307,249.726h-.864c-.172,0-.3-.088-.291-.2l.405-3.705c.012-.109.163-.2.335-.2h.864c.172,0,.3.089.291.2l-.4,3.705C136.63,249.638,136.479,249.726,136.307,249.726Z" fill="#407bff"/>
            <path id="Path_135" data-name="Path 135" d="M156.714,249.726h-.864c-.172,0-.3-.088-.292-.2l.406-3.705c.012-.109.162-.2.334-.2h.864c.172,0,.3.089.292.2l-.406,3.705C157.037,249.638,156.886,249.726,156.714,249.726Z" fill="#407bff"/>
          </g>
        </g>
        <g id="Group_31" data-name="Group 31">
          <g id="Group_28" data-name="Group 28">
            <ellipse id="Ellipse_6" data-name="Ellipse 6" cx="26.791" cy="1.944" rx="26.791" ry="1.944" transform="translate(108.755 415.198)" fill="#f5f5f5"/>
            <path id="Path_136" data-name="Path 136" d="M151.873,414.4c-4.74-1.376-9.957-3.149-13.185-5.035-.09-.052-.185-.09-.276-.137V387.8h9.534a2.854,2.854,0,0,0,0-5.708h-9.534V284.267H132.7v97.824h-9.534a2.854,2.854,0,1,0,0,5.708H132.7v21.429c-.092.047-.186.085-.276.137-3.228,1.886-8.445,3.659-13.185,5.035a1.4,1.4,0,0,0,.392,2.742h31.847A1.4,1.4,0,0,0,151.873,414.4Z" fill="#e0e0e0"/>
          </g>
          <g id="Group_30" data-name="Group 30">
            <rect id="Rectangle_28" data-name="Rectangle 28" width="45.925" height="20.933" rx="5.18" transform="translate(112.595 274.314)" fill="#407bff"/>
            <g id="Group_29" data-name="Group 29">
              <path id="Path_137" data-name="Path 137" d="M117.448,295.247v1.82c0,1.5,1.632,2.727,3.628,2.727h28.963c1.995,0,3.628-1.227,3.628-2.727v-1.82Z" fill="#407bff"/>
              <path id="Path_138" data-name="Path 138" d="M117.448,295.247v1.82c0,1.5,1.632,2.727,3.628,2.727h28.963c1.995,0,3.628-1.227,3.628-2.727v-1.82Z" fill="#fff" opacity="0.3"/>
            </g>
          </g>
        </g>
      </g>
    </g>
  </g>
</svg>
