<svg xmlns="http://www.w3.org/2000/svg" xmlns:xlink="http://www.w3.org/1999/xlink" width="500" height="500" viewBox="0 0 500 500">
  <defs>
    <clipPath id="clip-Artboard_1">
      <rect width="500" height="500"/>
    </clipPath>
  </defs>
  <g id="Artboard_1" data-name="Artboard 1" clip-path="url(#clip-Artboard_1)">
    <g id="Background_2" data-name="Background 2">
      <g id="Group_18" data-name="Group 18">
        <g id="Group_3" data-name="Group 3">
          <g id="Group_2" data-name="Group 2">
            <g id="Group_1" data-name="Group 1">
              <rect id="Rectangle_1" data-name="Rectangle 1" width="500" height="0.25" transform="translate(0 382.398)" fill="#d1e3ff"/>
              <rect id="Rectangle_2" data-name="Rectangle 2" width="16.863" height="0.25" transform="translate(376.316 390)" fill="#d1e3ff"/>
              <rect id="Rectangle_3" data-name="Rectangle 3" width="44.556" height="0.25" transform="translate(404 389.875)" fill="#d1e3ff"/>
              <rect id="Rectangle_4" data-name="Rectangle 4" width="55.469" height="0.25" transform="translate(265.258 391.556)" fill="#d1e3ff"/>
              <rect id="Rectangle_5" data-name="Rectangle 5" width="20.717" height="0.25" transform="translate(238.783 391.556)" fill="#d1e3ff"/>
              <rect id="Rectangle_6" data-name="Rectangle 6" width="9.1" height="0.25" transform="translate(142.458 389.625)" fill="#d1e3ff"/>
              <rect id="Rectangle_7" data-name="Rectangle 7" width="15.041" height="0.25" transform="translate(157.111 389.625)" fill="#d1e3ff"/>
              <rect id="Rectangle_8" data-name="Rectangle 8" width="66.555" height="0.25" transform="translate(66.889 394.139)" fill="#d1e3ff"/>
              <path id="Path_1" data-name="Path 1" d="M237.014,337.8H43.915a5.715,5.715,0,0,1-5.708-5.708V60.66a5.714,5.714,0,0,1,5.708-5.707h193.1a5.714,5.714,0,0,1,5.707,5.707V332.092A5.715,5.715,0,0,1,237.014,337.8ZM43.915,55.2a5.463,5.463,0,0,0-5.458,5.457V332.092a5.464,5.464,0,0,0,5.458,5.458h193.1a5.464,5.464,0,0,0,5.457-5.458V60.66a5.464,5.464,0,0,0-5.457-5.457Z" fill="#d1e3ff"/>
              <path id="Path_2" data-name="Path 2" d="M453.31,337.8h-193.1a5.714,5.714,0,0,1-5.707-5.708V60.66a5.713,5.713,0,0,1,5.707-5.707h193.1a5.714,5.714,0,0,1,5.709,5.707V332.092A5.715,5.715,0,0,1,453.31,337.8ZM260.212,55.2a5.463,5.463,0,0,0-5.457,5.457V332.092a5.463,5.463,0,0,0,5.457,5.458h193.1a5.464,5.464,0,0,0,5.459-5.458V60.66A5.464,5.464,0,0,0,453.31,55.2Z" fill="#d1e3ff"/>
            </g>
          </g>
        </g>
        <g id="Group_17" data-name="Group 17">
          <g id="Group_4" data-name="Group 4">
            <rect id="Rectangle_9" data-name="Rectangle 9" width="47.357" height="121.862" transform="translate(270.429 260.537)" fill="#d1e3ff"/>
            <path id="Path_3" data-name="Path 3" d="M308.792,382.4h8.995V356.813H299.361Z" fill="#eef9ff"/>
            <rect id="Rectangle_10" data-name="Rectangle 10" width="47.357" height="121.862" transform="translate(93.435 260.537)" fill="#d1e3ff"/>
            <rect id="Rectangle_11" data-name="Rectangle 11" width="184.844" height="106.162" transform="translate(132.942 260.537)" fill="#eef9ff"/>
            <rect id="Rectangle_12" data-name="Rectangle 12" width="66.459" height="82.426" transform="translate(228.383 334.713) rotate(-90)" fill="#d1e3ff"/>
            <rect id="Rectangle_13" data-name="Rectangle 13" width="66.459" height="82.426" transform="translate(139.92 334.713) rotate(-90)" fill="#d1e3ff"/>
            <rect id="Rectangle_14" data-name="Rectangle 14" width="4.893" height="82.426" transform="translate(310.809 351.92) rotate(90)" fill="#d1e3ff"/>
            <rect id="Rectangle_15" data-name="Rectangle 15" width="4.893" height="82.426" transform="translate(222.346 351.92) rotate(90)" fill="#d1e3ff"/>
            <rect id="Rectangle_16" data-name="Rectangle 16" width="4.893" height="82.426" transform="translate(310.809 342.472) rotate(90)" fill="#d1e3ff"/>
            <rect id="Rectangle_17" data-name="Rectangle 17" width="4.893" height="82.426" transform="translate(222.346 342.472) rotate(90)" fill="#d1e3ff"/>
            <path id="Path_4" data-name="Path 4" d="M189.286,275.411H172.979a25.8,25.8,0,0,1-18.726-8.055h53.76A25.8,25.8,0,0,1,189.286,275.411Z" fill="#eef9ff"/>
            <path id="Path_5" data-name="Path 5" d="M278.583,275.411H262.276a25.8,25.8,0,0,1-18.727-8.055h53.76A25.8,25.8,0,0,1,278.583,275.411Z" fill="#eef9ff"/>
            <path id="Path_6" data-name="Path 6" d="M141.937,382.4h-8.995V356.813h18.426Z" fill="#eef9ff"/>
          </g>
          <g id="Group_8" data-name="Group 8">
            <g id="Group_5" data-name="Group 5">
              <rect id="Rectangle_18" data-name="Rectangle 18" width="248.419" height="141.897" transform="translate(68.345 73.99)" fill="#d1e3ff"/>
              <path id="Path_7" data-name="Path 7" d="M330.505,69.611H60.044a1.273,1.273,0,0,0-1.273,1.273h0a1.273,1.273,0,0,0,1.273,1.273H330.505a1.273,1.273,0,0,0,1.273-1.273h0A1.273,1.273,0,0,0,330.505,69.611Z" fill="#d1e3ff"/>
              <rect id="Rectangle_19" data-name="Rectangle 19" width="251.317" height="141.897" transform="translate(70.888 73.99)" fill="#e3eeff"/>
              <rect id="Rectangle_20" data-name="Rectangle 20" width="248.419" height="10.111" transform="translate(68.345 215.887)" fill="#d1e3ff"/>
              <rect id="Rectangle_21" data-name="Rectangle 21" width="251.317" height="10.111" transform="translate(79.952 215.887)" fill="#e3eeff"/>
              <rect id="Rectangle_22" data-name="Rectangle 22" width="126.662" height="236.082" transform="translate(314.587 81.608) rotate(90)" fill="#f5fcff"/>
              <path id="Path_8" data-name="Path 8" d="M195.338,208.27,240.047,81.608h21.105L216.443,208.27Z" fill="#fff"/>
              <path id="Path_9" data-name="Path 9" d="M220.977,208.27,265.686,81.608h8.228L229.205,208.27Z" fill="#fff"/>
              <rect id="Rectangle_23" data-name="Rectangle 23" width="126.662" height="0.967" transform="translate(314.587 81.608) rotate(90)" fill="#d1e3ff"/>
            </g>
            <g id="Group_6" data-name="Group 6">
              <rect id="Rectangle_24" data-name="Rectangle 24" width="13.11" height="122.222" transform="translate(65.484 67.333)" fill="#ebf3ff"/>
              <rect id="Rectangle_25" data-name="Rectangle 25" width="10.214" height="122.222" transform="translate(73.487 67.333)" fill="#d1e3ff"/>
              <rect id="Rectangle_26" data-name="Rectangle 26" width="13.11" height="122.222" transform="translate(78.594 67.333)" fill="#ebf3ff"/>
              <rect id="Rectangle_27" data-name="Rectangle 27" width="10.214" height="122.222" transform="translate(86.597 67.333)" fill="#d1e3ff"/>
              <rect id="Rectangle_28" data-name="Rectangle 28" width="13.11" height="122.222" transform="translate(91.704 67.333)" fill="#ebf3ff"/>
            </g>
            <g id="Group_7" data-name="Group 7">
              <rect id="Rectangle_29" data-name="Rectangle 29" width="7.555" height="122.222" transform="translate(302.154 67.333)" fill="#ebf3ff"/>
              <rect id="Rectangle_30" data-name="Rectangle 30" width="5.886" height="122.222" transform="translate(306.765 67.333)" fill="#d1e3ff"/>
              <rect id="Rectangle_31" data-name="Rectangle 31" width="7.555" height="122.222" transform="translate(309.708 67.333)" fill="#ebf3ff"/>
              <rect id="Rectangle_32" data-name="Rectangle 32" width="5.886" height="122.222" transform="translate(314.32 67.333)" fill="#d1e3ff"/>
              <rect id="Rectangle_33" data-name="Rectangle 33" width="7.555" height="122.222" transform="translate(317.263 67.333)" fill="#ebf3ff"/>
            </g>
          </g>
          <g id="Group_14" data-name="Group 14">
            <rect id="Rectangle_34" data-name="Rectangle 34" width="16.761" height="45.73" transform="translate(376.772 120.351)" fill="#e3eeff"/>
            <g id="Group_12" data-name="Group 12">
              <g id="Group_9" data-name="Group 9">
                <path id="Path_10" data-name="Path 10" d="M370.4,173.706l-3.871,10.574H370.4l23.732-10.574Z" fill="#f3f8ff"/>
                <path id="Path_11" data-name="Path 11" d="M366.525,173.706V184.28l23.732-10.574Z" fill="#d1e3ff"/>
              </g>
              <g id="Group_10" data-name="Group 10">
                <path id="Path_12" data-name="Path 12" d="M410.986,173.706l-3.872,10.574h3.872l23.732-10.574Z" fill="#f3f8ff"/>
                <path id="Path_13" data-name="Path 13" d="M407.114,173.706V184.28l23.732-10.574Z" fill="#d1e3ff"/>
              </g>
              <g id="Group_11" data-name="Group 11">
                <rect id="Rectangle_35" data-name="Rectangle 35" width="25.81" height="8.054" transform="translate(374.913 174.202) rotate(180)" fill="#d1e3ff"/>
                <rect id="Rectangle_36" data-name="Rectangle 36" width="73.646" height="8.054" transform="translate(374.913 166.148)" fill="#f3f8ff"/>
              </g>
            </g>
            <g id="Group_13" data-name="Group 13">
              <path id="Path_14" data-name="Path 14" d="M421.449,166.081H380.657l-5.044-55.415h40.792Z" fill="#d1e3ff"/>
              <path id="Path_15" data-name="Path 15" d="M423.562,166.081H382.77l-5.044-55.415h40.792Z" fill="#eef9ff"/>
              <path id="Path_16" data-name="Path 16" d="M388.346,159.947,384.419,116.8h28.523l3.927,43.146Z" fill="#fff"/>
            </g>
          </g>
          <g id="Group_15" data-name="Group 15">
            <path id="Path_17" data-name="Path 17" d="M157.41,242.753s-17.586-30.315,6.812-54.447c0,0,6.368,4.15,6.27,9.729s-6.819,6.992-5.375,11.648,7.791,9.225,3.625,13.074.672,7.276.39,11.992S157.41,242.753,157.41,242.753Z" fill="#d1e3ff"/>
            <path id="Path_18" data-name="Path 18" d="M158.744,245.524S165.873,211.21,135.111,196c0,0-4.735,5.946-2.882,11.21S140.9,211.7,141,216.572s-4.484,11.21.683,13.55,1.657,7.116,3.411,11.5S158.744,245.524,158.744,245.524Z" fill="#d1e3ff"/>
            <path id="Path_19" data-name="Path 19" d="M131.8,237.921s.585,22.616,23.006,22.616,23.006-22.616,23.006-22.616Z" fill="#eef9ff"/>
          </g>
          <g id="Group_16" data-name="Group 16">
            <path id="Path_20" data-name="Path 20" d="M396.353,382.4h2.284l6.524-32.155,1.146-5.633,7.117-35.042h27.29L455.5,382.4h2.284l-15.067-74.174a1.114,1.114,0,0,0-1.1-.89H412.509a1.105,1.105,0,0,0-1.089.89L405.169,339l-1.146,5.625Z" fill="#ebf3ff"/>
            <path id="Path_21" data-name="Path 21" d="M352.545,382.4h2.284l14.795-72.83h27.282l7.117,35.059,1.138,5.616,6.532,32.155h2.284l-7.67-37.788L405.169,339l-6.251-30.778a1.121,1.121,0,0,0-1.1-.89H368.709a1.114,1.114,0,0,0-1.1.89Z" fill="#ebf3ff"/>
            <path id="Path_22" data-name="Path 22" d="M419.807,308.449H369.668a17.586,17.586,0,0,1-17.582-17.227l-1.869-76.2a12.809,12.809,0,0,1,12.806-13.07h31.432a12.809,12.809,0,0,1,12.726,11.358Z" fill="#e3eeff"/>
            <path id="Rectangle_37" data-name="Rectangle 37" d="M0,0H49.067a6.867,6.867,0,0,1,6.867,6.867V7.1a2.5,2.5,0,0,1-2.5,2.5H0a0,0,0,0,1,0,0V0A0,0,0,0,1,0,0Z" transform="translate(392.461 298.842)" fill="#e3eeff"/>
          </g>
        </g>
      </g>
    </g>
    <g id="Objects">
      <g id="Group_34" data-name="Group 34">
        <ellipse id="Ellipse_1" data-name="Ellipse 1" cx="193.889" cy="11.323" rx="193.889" ry="11.323" transform="translate(56.111 404.915)" fill="#f0f6ff"/>
        <g id="Group_33" data-name="Group 33">
          <g id="Group_27" data-name="Group 27">
            <path id="Path_24" data-name="Path 24" d="M186.553,128.281c0-.014,0-.026,0-.04s0-.021,0-.032a35.292,35.292,0,0,0-.45-5.558,34.937,34.937,0,0,0-34.169-29.3l-.243,0c-.01,0-.02,0-.031,0s-.021,0-.031,0a35.281,35.281,0,0,0-5.558.45,34.66,34.66,0,0,0-22.705,14.05c-.525.729-1.011,1.477-1.475,2.236a.706.706,0,0,0-.1.158A34.54,34.54,0,0,0,116.77,128.2c0,.014,0,.026,0,.04s0,.021,0,.032a35.267,35.267,0,0,0,.449,5.557,34.962,34.962,0,0,0,34.389,29.311,35.2,35.2,0,0,0,5.644-.457,34.657,34.657,0,0,0,22.7-14.05c.525-.729,1.011-1.478,1.475-2.236a.729.729,0,0,0,.1-.158A34.543,34.543,0,0,0,186.553,128.281Zm-68.277-.789a33.064,33.064,0,0,1,4.631-16.2h10.912a54.933,54.933,0,0,0-2.585,16.2Zm17.072-16.2h15.564v16.2H132.728A53.432,53.432,0,0,1,135.348,111.292Zm17.063-1.5V94.874a12.181,12.181,0,0,1,6.041,2.223c3.705,2.544,6.815,7.043,8.961,12.7Zm15.536,1.5a51.124,51.124,0,0,1,2.4,11.549c.146,1.561.223,3.113.244,4.651H152.411v-16.2ZM148.711,95.259a10.858,10.858,0,0,1,2.2-.381v14.916H135.883C138.714,102.285,143.252,96.795,148.711,95.259Zm2.2,33.731v16.2H135.376a51.146,51.146,0,0,1-2.4-11.549c-.146-1.561-.223-3.113-.245-4.651Zm0,17.7v14.92a12.191,12.191,0,0,1-6.041-2.223c-3.705-2.544-6.816-7.043-8.961-12.7Zm3.7,14.535a10.859,10.859,0,0,1-2.2.381V146.688H167.44C164.609,154.2,160.071,159.687,154.612,161.223Zm-2.2-16.033v-16.2H170.6a53.474,53.474,0,0,1-2.62,16.2Zm19.677-16.2h12.959a33.075,33.075,0,0,1-4.631,16.2H169.5A54.9,54.9,0,0,0,172.088,128.99Zm12.958-1.5H172.09c-.02-1.585-.1-3.183-.248-4.79a53.578,53.578,0,0,0-2.287-11.41h10.882a33.261,33.261,0,0,1,4.188,11.6A33.689,33.689,0,0,1,185.046,127.492Zm-13.867-26.33a33.441,33.441,0,0,1,8.32,8.632H169.042C166.8,103.6,163.434,98.7,159.3,95.861c-.1-.073-.213-.139-.319-.208A33.4,33.4,0,0,1,171.179,101.162Zm-26.873-5.49c-4.2,2.764-7.664,7.809-9.97,14.122H123.851c.238-.359.478-.718.732-1.07A33.149,33.149,0,0,1,144.306,95.672Zm-26.03,33.318h12.957c.02,1.584.1,3.183.248,4.79a53.578,53.578,0,0,0,2.287,11.41H122.886a33.28,33.28,0,0,1-4.189-11.6A33.816,33.816,0,0,1,118.276,128.99Zm5.548,17.7H134.28c2.243,6.194,5.608,11.094,9.743,13.932.109.075.219.139.329.21a33.628,33.628,0,0,1-20.528-14.142Zm35.193,14.122c4.2-2.765,7.664-7.809,9.97-14.122h10.486c-.239.359-.479.718-.733,1.07A33.151,33.151,0,0,1,159.017,160.81Z" fill="#318fff" opacity="0.2"/>
            <g id="Group_20" data-name="Group 20">
              <rect id="Rectangle_38" data-name="Rectangle 38" width="314.397" height="76.175" transform="translate(99.888 144.904)" fill="#9fc6ff"/>
              <rect id="Rectangle_39" data-name="Rectangle 39" width="314.397" height="76.175" transform="translate(92.801 151.99)" fill="#0053cc"/>
              <rect id="Rectangle_40" data-name="Rectangle 40" width="314.397" height="76.175" transform="translate(85.715 159.077)" fill="#318fff"/>
              <rect id="Rectangle_41" data-name="Rectangle 41" width="46.176" height="284.396" transform="translate(385.112 174.077) rotate(90)" fill="#fff"/>
              <rect id="Rectangle_42" data-name="Rectangle 42" width="46.176" height="1.667" transform="translate(337.269 220.252) rotate(-90)" fill="#9fc6ff"/>
              <rect id="Rectangle_43" data-name="Rectangle 43" width="33.444" height="1.667" transform="translate(107.802 213.887) rotate(-90)" fill="#9fc6ff"/>
              <g id="Group_19" data-name="Group 19">
                <path id="Path_25" data-name="Path 25" d="M360.431,202.948a7.377,7.377,0,1,1,5.217-12.593h0a7.376,7.376,0,0,1-5.217,12.593Zm0-12.752a5.377,5.377,0,1,0,3.8,1.573h0A5.359,5.359,0,0,0,360.431,190.2Z" fill="#9fc6ff"/>
                <path id="Path_26" data-name="Path 26" d="M370,206.136a1,1,0,0,1-.707-.293l-5.051-5.051a1,1,0,1,1,1.414-1.414l5.051,5.051a1,1,0,0,1-.707,1.707Z" fill="#9fc6ff"/>
              </g>
            </g>
            <g id="Group_21" data-name="Group 21">
              <rect id="Rectangle_44" data-name="Rectangle 44" width="31.441" height="0.779" transform="translate(261.152 98.851)" fill="#9fc6ff"/>
              <rect id="Rectangle_45" data-name="Rectangle 45" width="31.441" height="0.779" transform="translate(261.152 102.164)" fill="#9fc6ff"/>
              <rect id="Rectangle_46" data-name="Rectangle 46" width="31.441" height="0.779" transform="translate(261.152 105.478)" fill="#9fc6ff"/>
              <rect id="Rectangle_47" data-name="Rectangle 47" width="31.441" height="0.779" transform="translate(261.152 108.791)" fill="#9fc6ff"/>
              <rect id="Rectangle_48" data-name="Rectangle 48" width="31.441" height="0.779" transform="translate(261.152 112.104)" fill="#9fc6ff"/>
              <rect id="Rectangle_49" data-name="Rectangle 49" width="20.498" height="0.779" transform="translate(261.153 115.418)" fill="#9fc6ff"/>
            </g>
            <g id="Group_22" data-name="Group 22">
              <rect id="Rectangle_50" data-name="Rectangle 50" width="33.5" height="0.499" transform="translate(69.847 241.836)" fill="#9fc6ff"/>
              <rect id="Rectangle_51" data-name="Rectangle 51" width="33.5" height="0.499" transform="translate(69.847 243.958)" fill="#9fc6ff"/>
              <rect id="Rectangle_52" data-name="Rectangle 52" width="33.5" height="0.499" transform="translate(69.847 246.08)" fill="#9fc6ff"/>
              <rect id="Rectangle_53" data-name="Rectangle 53" width="33.5" height="0.499" transform="translate(69.847 248.202)" fill="#9fc6ff"/>
              <rect id="Rectangle_54" data-name="Rectangle 54" width="33.5" height="0.499" transform="translate(69.847 250.323)" fill="#9fc6ff"/>
              <rect id="Rectangle_55" data-name="Rectangle 55" width="21.056" height="0.499" transform="translate(69.847 252.445)" fill="#9fc6ff"/>
            </g>
            <g id="Group_23" data-name="Group 23">
              <path id="Path_27" data-name="Path 27" d="M213.447,103.762h0a6.32,6.32,0,0,0-6.32,6.32v20.851a6.32,6.32,0,0,0,6.32,6.32h0a6.321,6.321,0,0,0,6.321-6.32V110.082A6.321,6.321,0,0,0,213.447,103.762Z" fill="#318fff"/>
              <path id="Path_28" data-name="Path 28" d="M229.286,91.333h0a6.321,6.321,0,0,0-6.321,6.321v33.279a6.321,6.321,0,0,0,6.321,6.32h0a6.321,6.321,0,0,0,6.321-6.32V97.654A6.321,6.321,0,0,0,229.286,91.333Z" fill="#0053cc"/>
              <path id="Path_29" data-name="Path 29" d="M245.125,116.19h0a6.321,6.321,0,0,0-6.321,6.321v8.422a6.321,6.321,0,0,0,6.321,6.32h0a6.321,6.321,0,0,0,6.32-6.32v-8.422A6.321,6.321,0,0,0,245.125,116.19Z" fill="#9fc6ff"/>
            </g>
            <g id="Group_25" data-name="Group 25">
              <g id="Group_24" data-name="Group 24">
                <path id="Path_30" data-name="Path 30" d="M378.61,259.126h25.553l-43.622-45.239h0l18.069,45.239" fill="#197bdd"/>
              </g>
              <path id="Path_31" data-name="Path 31" d="M354.052,235.252l6.489-21.365,3.678,21.365Z" fill="#9fc6ff"/>
              <path id="Path_32" data-name="Path 32" d="M360.541,213.887v63.308l4.517-4.517,13.552-13.552Z" fill="#4ea4f9"/>
            </g>
            <g id="Group_26" data-name="Group 26">
              <path id="Path_33" data-name="Path 33" d="M405.723,78.112H349.73a10.758,10.758,0,0,0-10.712,10.712v28.914A10.758,10.758,0,0,0,349.73,128.45h41.086l-.3,10.113,10.374-10.113h4.832a10.758,10.758,0,0,0,10.712-10.712V88.824A10.758,10.758,0,0,0,405.723,78.112ZM348.456,90.435a3.006,3.006,0,0,1,3-3h12.885a2.978,2.978,0,0,1,0,5.956H351.452A3,3,0,0,1,348.456,90.435Zm54.084,27.977H380.255a2.958,2.958,0,1,1,0-5.917H402.54a2.958,2.958,0,0,1,0,5.917Zm0-12.509H354.449a2.959,2.959,0,1,1,0-5.918H402.54a2.959,2.959,0,0,1,0,5.918Zm0-12.509H374.075a2.978,2.978,0,0,1,0-5.956H402.54a2.978,2.978,0,0,1,0,5.956Z" fill="#197bdd"/>
            </g>
          </g>
          <g id="Group_32" data-name="Group 32">
            <g id="Group_29" data-name="Group 29">
              <path id="Path_34" data-name="Path 34" d="M318.14,169.78A53.705,53.705,0,0,0,307.39,152H227.88a53.7,53.7,0,0,0-10.75,17.78l11,54.76a53.731,53.731,0,0,0,90.01-54.76Z" fill="#318fff"/>
              <path id="Path_35" data-name="Path 35" d="M321.31,190.61a53.55,53.55,0,0,1-14.16,33.93H228.13a53.811,53.811,0,0,1-11-54.76H318.14A53.416,53.416,0,0,1,321.31,190.61Z" fill="#fff"/>
              <path id="Path_36" data-name="Path 36" d="M321.31,190.61a53.614,53.614,0,1,1-3.17-20.83A53.55,53.55,0,0,1,321.31,190.61Z" fill="#d4e8ff" opacity="0.4"/>
              <path id="Path_37" data-name="Path 37" d="M297.924,143.765l-77.261,70.457c-.4-.713-.776-1.437-1.143-2.166a53,53,0,0,1-4.868-14.992v-.006L281.384,136.2A53.3,53.3,0,0,1,297.924,143.765Z" fill="#d4e8ff" opacity="0.4"/>
              <path id="Path_38" data-name="Path 38" d="M318.594,171.073l-72.638,66.236a53.65,53.65,0,0,1-19.476-14.64l79.32-72.336A53.738,53.738,0,0,1,318.594,171.073Z" fill="#d4e8ff" opacity="0.4"/>
              <path id="Path_39" data-name="Path 39" d="M321.286,157.152a61.956,61.956,0,1,0-22.661,84.642A61.957,61.957,0,0,0,321.286,157.152ZM225.3,212.589a48.887,48.887,0,1,1,66.787,17.888A48.888,48.888,0,0,1,225.3,212.589Z" fill="#197bdd"/>
              <g id="Group_28" data-name="Group 28">
                <path id="Path_40" data-name="Path 40" d="M125.06,251.89l7.657,1.785-6.343,4.737s-4.552-2.067-4.764-5.3Z" fill="#ff8b7b"/>
                <path id="Path_41" data-name="Path 41" d="M136.821,258.773l-5.525,3.678-4.922-4.04,6.343-4.737Z" fill="#ff8b7b"/>
              </g>
              <path id="Path_42" data-name="Path 42" d="M223.469,220.784c-8.143,6.017-16.484,11.691-24.882,17.267s-16.886,11-25.427,16.325c-8.556,5.3-17.144,10.549-25.811,15.659-4.314,2.588-8.682,5.083-13.021,7.629a25.6,25.6,0,0,1-6.941,3.07,21.5,21.5,0,0,1-3.972.666,16.778,16.778,0,0,1-4.492-.233,8.213,8.213,0,0,1-6.458-9.652,9.3,9.3,0,0,1,.28-1.044,16.786,16.786,0,0,1,2.043-4.007,21.6,21.6,0,0,1,2.562-3.109,25.621,25.621,0,0,1,6.127-4.477c4.374-2.486,8.718-5.023,13.115-7.467,8.758-4.954,17.6-9.77,26.463-14.532q13.325-7.1,26.846-13.867c9.026-4.488,18.109-8.878,27.39-12.925a6.216,6.216,0,0,1,6.178,10.7Z" fill="#197bdd"/>
            </g>
            <g id="Group_31" data-name="Group 31">
              <path id="Path_43" data-name="Path 43" d="M136.16,204.519c-.5.806-1.074,1.791-1.61,2.707-.536.938-1.067,1.886-1.573,2.85-1.039,1.911-2.037,3.851-2.969,5.821-.91,1.98-1.811,3.963-2.632,5.978-.392,1.013-.814,2.018-1.184,3.038l-.559,1.53c-.112.288-.13.405-.2.613-.064.181-.1.413-.161.618a30.986,30.986,0,0,0-.585,6.028c-.057,2.143.023,4.339.112,6.546s.248,4.432.449,6.656c.156,2.225.4,4.472.6,6.675l-3.862.793c-.677-2.236-1.206-4.451-1.739-6.7-.487-2.25-.93-4.515-1.313-6.807s-.658-4.616-.826-7a35.178,35.178,0,0,1,.19-7.505c.066-.348.108-.677.2-1.041.083-.336.183-.774.26-1.019l.489-1.7c.324-1.135.7-2.25,1.071-3.367.772-2.222,1.609-4.42,2.55-6.571s1.941-4.275,3.028-6.36c.548-1.039,1.125-2.066,1.714-3.09.6-1.042,1.185-2,1.918-3.1Z" fill="#ff8b7b"/>
              <path id="Path_44" data-name="Path 44" d="M131.894,411a9.535,9.535,0,0,1-2.056-.278.188.188,0,0,1-.139-.148.184.184,0,0,1,.081-.186c.266-.175,2.633-1.7,3.536-1.291a.628.628,0,0,1,.367.518,1.048,1.048,0,0,1-.3.979A2.234,2.234,0,0,1,131.894,411Zm-1.534-.542c1.357.27,2.376.224,2.769-.137a.693.693,0,0,0,.189-.655.262.262,0,0,0-.154-.233C132.687,409.223,131.324,409.877,130.36,410.46Z" fill="#0053cc"/>
              <path id="Path_45" data-name="Path 45" d="M129.881,410.728a.185.185,0,0,1-.185-.184c0-.1.011-2.337.857-3.086a.952.952,0,0,1,.781-.246.643.643,0,0,1,.62.514c.176.877-1.239,2.556-1.982,2.978A.175.175,0,0,1,129.881,410.728Zm1.325-3.156a.6.6,0,0,0-.408.161,4.222,4.222,0,0,0-.721,2.452c.74-.591,1.623-1.853,1.516-2.387-.018-.087-.068-.192-.3-.221A.788.788,0,0,0,131.206,407.572Z" fill="#0053cc"/>
              <path id="Path_46" data-name="Path 46" d="M167.306,411a13.311,13.311,0,0,1-2.45-.278.186.186,0,0,1-.147-.155.183.183,0,0,1,.1-.189c.35-.183,3.451-1.765,4.407-1.245a.591.591,0,0,1,.313.49,1.02,1.02,0,0,1-.333.9A2.917,2.917,0,0,1,167.306,411Zm-1.837-.541c1.727.286,3.008.212,3.479-.213a.662.662,0,0,0,.212-.59.231.231,0,0,0-.123-.2C168.521,409.176,166.745,409.85,165.469,410.462Z" fill="#0053cc"/>
              <path id="Path_47" data-name="Path 47" d="M164.892,410.728a.176.176,0,0,1-.106-.034.182.182,0,0,1-.078-.165c.007-.089.187-2.184,1.166-3a1.353,1.353,0,0,1,1.021-.318c.511.052.658.311.692.52.144.881-1.691,2.561-2.619,2.981A.182.182,0,0,1,164.892,410.728Zm1.855-3.156a.964.964,0,0,0-.637.241,4.265,4.265,0,0,0-.992,2.4c.946-.574,2.192-1.895,2.106-2.424-.008-.044-.03-.179-.366-.213A1.061,1.061,0,0,0,166.747,407.572Z" fill="#0053cc"/>
              <path id="Path_48" data-name="Path 48" d="M147.951,174.494c.6,4.668,2.04,14.137-1.385,17,0,0,.956,4.758,9.521,5.315,9.419.611,4.8-4.383,4.8-4.383-5.061-1.562-4.68-5.367-3.552-8.89Z" fill="#ff8b7b"/>
              <path id="Path_49" data-name="Path 49" d="M165.474,164.985a.369.369,0,0,1-.325-.543,3.657,3.657,0,0,1,2.733-1.965.368.368,0,0,1,.064.734h0a2.924,2.924,0,0,0-2.147,1.581A.37.37,0,0,1,165.474,164.985Z" fill="#0f264c"/>
              <path id="Path_50" data-name="Path 50" d="M168.159,169.1a16.738,16.738,0,0,0,2.605,3.78,2.7,2.7,0,0,1-2.189.628Z" fill="#ff5652"/>
              <path id="Path_51" data-name="Path 51" d="M167.5,168.081c.059.625.438,1.1.847,1.062s.692-.577.633-1.2-.438-1.1-.847-1.062S167.439,167.456,167.5,168.081Z" fill="#0f264c"/>
              <path id="Path_52" data-name="Path 52" d="M167.954,166.931l1.461-.575S168.755,167.6,167.954,166.931Z" fill="#0f264c"/>
              <path id="Path_53" data-name="Path 53" d="M156.332,410.544h7.785l.52-18.028h-7.785Z" fill="#ff8b7b"/>
              <path id="Path_54" data-name="Path 54" d="M120.962,410.544h7.785l2.5-18.028h-7.785Z" fill="#ff8b7b"/>
              <path id="Path_55" data-name="Path 55" d="M129.229,409.642h-8.745a.617.617,0,0,0-.622.532l-1,6.92a1.251,1.251,0,0,0,1.248,1.384c3.049-.053,4.518-.232,8.365-.232,2.366,0,5.823.246,9.09.246,3.2,0,3.442-3.231,2.081-3.523-6.1-1.312-7.064-3.122-9.119-4.848A2.037,2.037,0,0,0,129.229,409.642Z" fill="#14365b"/>
              <path id="Path_56" data-name="Path 56" d="M164.384,409.642h-8.746a.617.617,0,0,0-.622.532l-1,6.92a1.251,1.251,0,0,0,1.248,1.384c3.049-.053,4.519-.232,8.365-.232,2.366,0,7.26.246,10.528.246,3.2,0,3.441-3.231,2.081-3.523-6.1-1.312-8.5-3.122-10.557-4.848A2.036,2.036,0,0,0,164.384,409.642Z" fill="#14365b"/>
              <g id="Group_30" data-name="Group 30">
                <path id="Path_57" data-name="Path 57" d="M164.635,392.521l-.266,9.292H156.58l.266-9.292Z" fill="#ea7063"/>
                <path id="Path_58" data-name="Path 58" d="M123.462,392.521h7.788l-1.294,9.292h-7.788Z" fill="#ea7063"/>
              </g>
              <path id="Path_59" data-name="Path 59" d="M139.48,205.72a39.938,39.938,0,0,1-5.11,6.42l-.89-.59-9.86-6.59s5.41-11.92,9.43-12.57c3.87-.62,6.69,3.38,8.02,7.66C141.55,201.6,140.72,203.7,139.48,205.72Z" fill="#9fc6ff"/>
              <path id="Path_60" data-name="Path 60" d="M139.48,205.72a39.938,39.938,0,0,1-5.11,6.42l-.89-.59c.44-3.6,1.84-7.17,3.44-8.3C137.9,203.35,138.77,204.39,139.48,205.72Z" fill="#77b3fc"/>
              <path id="Path_61" data-name="Path 61" d="M173.21,211.71v.01c-.47,2.99-1.08,6.53-1.9,10.72-1.04,5.36-2.4,11.79-4.17,19.48-12.52-.82-25.46-1.66-31.55-2.05,1.36-12.81,1.89-20.73-2.54-47.48a92.823,92.823,0,0,1,13.52-.89,100.559,100.559,0,0,1,14.32.93c6.12.96,13,2.84,13,2.84S175.65,196.02,173.21,211.71Z" fill="#9fc6ff"/>
              <path id="Path_62" data-name="Path 62" d="M173.21,211.71v.01c-.47,2.99-1.08,6.53-1.9,10.72A77.482,77.482,0,0,1,167,211h5.86Z" fill="#77b3fc"/>
              <path id="Path_63" data-name="Path 63" d="M146.277,167.917c1.2,7.633,1.539,10.89,5.788,14.465,6.392,5.377,15.506,2.239,16.615-5.6,1-7.054-1.125-18.351-8.928-20.7A10.538,10.538,0,0,0,146.277,167.917Z" fill="#ff8b7b"/>
              <path id="Path_64" data-name="Path 64" d="M158.8,241.37s-.5,13.89-1.7,31.41c-1,14.7-2.51,31.94-4.62,45.68-.02.13-.04.25-.06.38-3.79,24.32-20.58,81.17-20.58,81.17H121.22s8.75-54.9,10.67-78.96c4.87-60.87-7.33-67.76,3.7-81.18Z" fill="#0053cc"/>
              <path id="Path_65" data-name="Path 65" d="M157.1,272.78c-1,14.7-2.51,31.94-4.62,45.68-3.59-17.85-9.49-43.92-1.57-60.97C152.8,262.31,155.03,267.79,157.1,272.78Z" fill="#004daa"/>
              <path id="Path_66" data-name="Path 66" d="M167.136,241.916S176.111,295.265,175.6,319c-.531,24.693-9.579,81.01-9.579,81.01H155.495s1.666-54.874.736-79.125c-1.015-26.437-12.2-80.474-12.2-80.474Z" fill="#0053cc"/>
              <path id="Path_67" data-name="Path 67" d="M153.7,400.5h14.11l1.1-4.736-15.712.108Z" fill="#0f264c"/>
              <path id="Path_68" data-name="Path 68" d="M119.682,400.5h14.11l1.1-4.736-15.113.108Z" fill="#0f264c"/>
              <path id="Path_69" data-name="Path 69" d="M135.234,237.984l-1.606,2.732c-.125.212.12.452.485.476l33.087,2.149c.284.019.529-.105.559-.283l.468-2.806c.032-.194-.2-.376-.515-.4l-31.949-2.075A.572.572,0,0,0,135.234,237.984Z" fill="#0f264c"/>
              <path id="Path_70" data-name="Path 70" d="M139.293,241.835l-.856-.055c-.171-.011-.295-.108-.276-.214l.64-3.643c.018-.107.173-.185.344-.174l.855.056c.171.011.295.107.276.214l-.64,3.643C139.618,241.768,139.463,241.846,139.293,241.835Z" fill="#0053cc"/>
              <path id="Path_71" data-name="Path 71" d="M160.033,243.183l-.856-.056c-.17-.011-.294-.107-.275-.214l.639-3.643c.019-.107.174-.185.344-.174l.856.056c.17.011.294.107.276.214l-.64,3.643C160.358,243.116,160.2,243.194,160.033,243.183Z" fill="#0053cc"/>
              <path id="Path_72" data-name="Path 72" d="M175.681,203.314c1.2,4.008,2.341,8.049,3.451,12.087l3.347,12.089.421,1.5.105.375.052.184.033.1a3.017,3.017,0,0,0,.129.394,6.052,6.052,0,0,0,1.046,1.678,16.291,16.291,0,0,0,4.1,3.16,52.4,52.4,0,0,0,10.985,4.44l-.571,3.9a41.717,41.717,0,0,1-13.081-2.824,20.784,20.784,0,0,1-6.289-3.885,12.387,12.387,0,0,1-2.609-3.422,10.165,10.165,0,0,1-.47-1.062l-.108-.273-.068-.19-.133-.377-.531-1.505q-2.091-6.015-3.925-12.058c-1.256-4.028-2.441-8.065-3.539-12.143Z" fill="#ff8b7b"/>
              <path id="Path_73" data-name="Path 73" d="M173.894,195.271c3.992,1.307,8.2,14.393,8.2,14.393l-14.441,6.215s-6.034-14.678-3.342-18.038C167.113,194.342,169.3,193.768,173.894,195.271Z" fill="#9fc6ff"/>
              <path id="Path_74" data-name="Path 74" d="M166.174,155.654c-2.556-3.154-22.255-5.4-23.308,3.179-6.978,4.9-.355,17.557.645,20.78-4.833,1.333-20.388,6.662-9.055,17s28.471,8.575,31.816-2.118c2.339-7.481-5.094-19.991-4.927-24.379S170.54,161.041,166.174,155.654Z" fill="#0f264c"/>
              <path id="Path_75" data-name="Path 75" d="M144.889,181.194a.251.251,0,0,1-.194-.091c-1.81-2.206-8.1-13.758-5.9-19.267a4.79,4.79,0,0,1,4.225-2.973.25.25,0,1,1,.061.5,4.319,4.319,0,0,0-3.821,2.663c-2.133,5.322,4.044,16.6,5.817,18.764a.251.251,0,0,1-.035.352A.246.246,0,0,1,144.889,181.194Z" fill="#0f264c"/>
              <path id="Path_76" data-name="Path 76" d="M159.832,169.643a6.605,6.605,0,0,0,1.958,3.821c1.421,1.356,2.76.425,2.891-1.3.119-1.552-.478-4.127-2.158-4.84C160.868,166.623,159.616,167.908,159.832,169.643Z" fill="#ff8b7b"/>
            </g>
            <path id="Path_77" data-name="Path 77" d="M194.385,238.244l5.688-1.93-.9,6.821s-2.235,1.038-5.134-1.513l-2.771-1.775,2.178-1.192A5.9,5.9,0,0,1,194.385,238.244Z" fill="#ff8b7b"/>
            <path id="Path_78" data-name="Path 78" d="M204.037,236.293l-1.739,5.965-3.121.877.9-6.821Z" fill="#ff8b7b"/>
          </g>
        </g>
      </g>
    </g>
  </g>
</svg>
